# xmcd
#
# Track frame offsets: 
#        150
#        22267
#        35992
#        55921
#        75837
#        90602
#        107895
#        122899
#        140793
#        152873
#        164341
#
# Disc length: 2321 seconds
#
# Revision: 0
# Processed by: cddbd v1.5.2PL0 Copyright (c) Steve Scherf et al.
# Submitted via: ExactAudioCopy v0.95b4
#
DISCID=98090f0b
DTITLE=Ronald Andersen - Club Blues
DYEAR=2003
DGENRE=Blues
TTITLE0=Big Boss
TTITLE1=I Need You
TTITLE2=Funky Mama
TTITLE3=Junco Partner
TTITLE4=Big Easy
TTITLE5=Though Talk
TTITLE6=Just Can't be satisfied
TTITLE7=Honky Tonk Angel
TTITLE8=Club Blues
TTITLE9=Friend
TTITLE10=Party Girl
EXTD=
EXTT0=
EXTT1=
EXTT2=
EXTT3=
EXTT4=
EXTT5=
EXTT6=
EXTT7=
EXTT8=
EXTT9=
EXTT10=
PLAYORDER=
